<svg id="svg" version="1.1" xmlns="http://www.w3.org/2000/svg" xmlns:xlink="http://www.w3.org/1999/xlink" width="400" height="397.61015683345784" viewBox="0, 0, 400,397.61015683345784"><g id="svgg"><path id="path0" d="M53.622 3.634 C 29.425 6.368,9.112 25.184,4.493 49.141 C 3.407 54.773,3.300 58.665,3.293 92.830 L 3.286 126.064 35.176 126.064 C 67.941 126.064,70.789 125.980,76.731 124.837 C 99.474 120.466,118.418 102.579,124.112 80.102 C 125.920 72.965,125.851 74.556,125.976 37.416 L 126.090 3.286 91.051 3.325 C 71.780 3.347,54.937 3.486,53.622 3.634 M288.154 64.302 C 279.960 97.860,273.193 125.485,273.116 125.691 C 273.004 125.988,278.663 126.064,300.790 126.064 L 328.603 126.064 328.603 102.389 L 328.603 78.714 327.334 78.039 C 313.629 70.753,319.197 49.291,334.792 49.291 C 350.485 49.291,356.483 70.705,342.794 77.857 L 341.152 78.715 341.151 102.390 L 341.150 126.064 368.932 126.064 C 385.717 126.064,396.714 125.955,396.714 125.788 C 396.714 125.637,389.589 98.081,380.881 64.554 C 372.173 31.027,365.049 3.526,365.049 3.441 C 365.049 3.356,351.099 3.286,334.050 3.286 L 303.051 3.286 288.154 64.302 M263.586 64.078 C 263.585 65.556,263.636 66.199,263.699 65.506 C 263.761 64.812,263.762 63.602,263.700 62.817 C 263.638 62.032,263.587 62.599,263.586 64.078 M215.161 64.078 C 215.165 64.735,215.226 64.969,215.297 64.597 C 215.369 64.225,215.366 63.688,215.291 63.402 C 215.216 63.116,215.158 63.420,215.161 64.078 M193.720 102.763 C 193.720 116.482,193.757 122.095,193.801 115.235 C 193.846 108.376,193.846 97.151,193.801 90.291 C 193.757 83.432,193.720 89.044,193.720 102.763 M154.593 109.037 C 155.402 109.858,156.131 110.530,156.214 110.530 C 156.296 110.530,155.701 109.858,154.892 109.037 C 154.083 108.215,153.353 107.543,153.271 107.543 C 153.189 107.543,153.784 108.215,154.593 109.037 M57.272 136.555 C 17.793 140.359,-8.725 180.087,2.819 218.135 C 18.428 269.585,87.253 279.551,116.885 234.653 C 122.034 226.850,126.651 213.766,126.660 206.945 L 126.662 206.124 102.171 206.124 L 77.680 206.124 76.898 207.667 C 71.698 217.928,55.294 217.317,50.112 206.670 C 41.681 189.349,66.843 175.472,76.624 192.047 L 77.521 193.565 102.222 193.571 L 126.923 193.577 126.770 192.457 C 122.022 157.546,91.790 133.228,57.272 136.555 M194.473 271.559 C 165.280 274.356,140.911 298.531,138.703 326.886 L 138.522 329.201 162.092 329.201 L 185.661 329.200 186.513 327.682 C 191.311 319.141,203.686 317.567,210.722 324.603 C 220.333 334.214,213.539 350.842,200.000 350.842 C 194.222 350.842,188.170 347.022,186.125 342.084 L 185.738 341.150 162.025 341.150 L 138.312 341.150 138.312 368.783 L 138.312 396.415 199.695 396.415 L 261.077 396.415 261.158 364.526 C 261.258 325.395,261.252 325.246,259.146 317.102 C 251.727 288.416,223.799 268.749,194.473 271.559 M273.485 335.026 C 273.485 368.872,273.520 382.674,273.562 365.697 C 273.605 348.720,273.605 321.027,273.562 304.158 C 273.520 287.289,273.485 301.180,273.485 335.026 M378.940 291.561 C 379.581 292.218,380.174 292.756,380.256 292.756 C 380.338 292.756,379.880 292.218,379.238 291.561 C 378.596 290.904,378.004 290.366,377.922 290.366 C 377.840 290.366,378.298 290.904,378.940 291.561 " stroke="none" fill="#647b9b" fill-rule="evenodd"></path><path id="path1" d="M193.493 0.611 C 154.561 4.679,128.437 42.359,138.295 80.225 C 144.779 105.130,166.009 123.849,191.561 127.192 L 193.577 127.456 193.577 102.741 L 193.577 78.026 191.997 77.134 C 180.177 70.463,183.367 51.802,196.803 49.021 C 213.121 45.643,222.304 67.861,208.275 76.774 L 206.159 78.118 206.141 102.792 L 206.124 127.466 208.982 127.070 C 248.134 121.651,272.813 81.594,260.281 43.803 C 250.984 15.767,222.811 -2.452,193.493 0.611 M273.637 335.026 L 273.637 396.415 335.325 396.415 L 397.013 396.415 397.013 364.184 C 397.013 343.616,396.898 330.833,396.696 328.859 C 393.693 299.536,370.663 276.707,341.299 273.946 C 339.274 273.756,325.670 273.637,305.825 273.637 L 273.637 273.637 273.637 335.026 " stroke="none" fill="#93a3bb" fill-rule="evenodd"></path><path id="path2" d="M122.405 3.206 C 123.103 3.269,124.246 3.269,124.944 3.206 C 125.642 3.143,125.071 3.092,123.674 3.092 C 122.278 3.092,121.706 3.143,122.405 3.206 M328.746 102.465 C 328.746 115.527,328.782 120.870,328.827 114.339 C 328.872 107.808,328.872 97.121,328.827 90.590 C 328.782 84.059,328.746 89.403,328.746 102.465 M273.637 171.294 C 273.637 207.505,273.659 208.035,275.451 215.008 C 280.868 236.091,297.121 252.816,318.015 258.808 C 325.817 261.046,323.302 260.920,362.136 261.018 L 397.013 261.107 397.013 199.859 L 397.013 138.611 369.231 138.611 L 341.449 138.611 341.449 162.331 L 341.449 186.052 343.017 186.941 C 355.047 193.764,352.252 212.036,338.689 215.234 C 321.752 219.227,312.317 195.077,327.633 186.934 L 328.902 186.259 328.902 162.286 L 328.902 138.312 301.270 138.312 L 273.637 138.312 273.637 171.294 M61.020 263.396 C 61.474 263.465,62.146 263.463,62.513 263.392 C 62.881 263.321,62.509 263.265,61.688 263.267 C 60.866 263.269,60.566 263.327,61.020 263.396 M64.750 263.392 C 65.119 263.464,65.724 263.464,66.094 263.392 C 66.464 263.321,66.161 263.263,65.422 263.263 C 64.683 263.263,64.380 263.321,64.750 263.392 M3.286 335.026 L 3.286 396.415 64.675 396.415 L 126.064 396.415 126.064 368.783 L 126.064 341.150 102.493 341.150 L 78.922 341.150 78.035 342.718 C 68.305 359.934,42.200 345.602,51.117 327.939 C 56.447 317.380,73.178 317.190,78.118 327.632 L 78.715 328.895 102.390 328.899 L 126.064 328.902 126.064 301.270 L 126.064 273.637 64.675 273.637 L 3.286 273.637 3.286 335.026 M199.178 320.151 C 199.548 320.222,200.153 320.222,200.523 320.151 C 200.892 320.080,200.590 320.022,199.851 320.022 C 199.111 320.022,198.809 320.080,199.178 320.151 M138.408 328.753 C 138.469 329.345,138.690 329.350,161.991 329.353 L 185.512 329.356 162.083 329.277 C 140.098 329.202,138.645 329.165,138.500 328.676 C 138.382 328.274,138.361 328.292,138.408 328.753 M261.172 330.993 C 261.172 331.733,261.230 332.035,261.301 331.665 C 261.372 331.296,261.372 330.691,261.301 330.321 C 261.230 329.951,261.172 330.254,261.172 330.993 M261.234 365.198 C 261.234 382.450,261.270 389.463,261.314 380.784 C 261.358 372.104,261.358 357.989,261.314 349.417 C 261.270 340.845,261.234 347.946,261.234 365.198 M215.167 335.474 C 215.167 336.214,215.226 336.516,215.297 336.146 C 215.368 335.777,215.368 335.172,215.297 334.802 C 215.226 334.432,215.167 334.735,215.167 335.474 M188.200 345.426 C 188.200 345.477,188.637 345.914,189.171 346.397 L 190.142 347.274 189.264 346.303 C 188.447 345.398,188.200 345.195,188.200 345.426 M210.437 346.602 L 209.559 347.573 210.530 346.695 C 211.064 346.213,211.501 345.776,211.501 345.725 C 211.501 345.494,211.255 345.697,210.437 346.602 " stroke="none" fill="#34547b" fill-rule="evenodd"></path><path id="path3" d="M138.312 166.094 L 138.312 193.876 199.851 193.876 L 261.389 193.876 261.389 166.094 L 261.389 138.312 233.607 138.312 L 205.825 138.312 205.825 152.502 L 205.825 166.692 199.851 166.692 L 193.876 166.692 193.876 152.502 L 193.876 138.312 166.094 138.312 L 138.312 138.312 138.312 166.094 M273.483 171.322 C 273.483 189.559,273.518 196.976,273.562 187.804 C 273.606 178.631,273.606 163.710,273.562 154.645 C 273.518 145.580,273.483 153.084,273.483 171.322 M397.159 199.851 C 397.159 233.779,397.194 247.659,397.237 230.695 C 397.279 213.730,397.279 185.971,397.237 169.007 C 397.194 152.043,397.159 165.922,397.159 199.851 M345.930 189.544 C 346.822 190.448,347.620 191.187,347.702 191.187 C 347.784 191.187,347.121 190.448,346.229 189.544 C 345.336 188.641,344.539 187.901,344.457 187.901 C 344.374 187.901,345.037 188.641,345.930 189.544 M348.826 193.424 C 349.099 193.997,349.376 194.413,349.441 194.348 C 349.577 194.211,348.671 192.382,348.466 192.382 C 348.391 192.382,348.553 192.851,348.826 193.424 M350.480 198.954 C 350.480 199.529,350.542 199.765,350.617 199.477 C 350.692 199.190,350.692 198.719,350.617 198.432 C 350.542 198.144,350.480 198.379,350.480 198.954 M350.480 201.643 C 350.480 202.218,350.542 202.453,350.617 202.166 C 350.692 201.878,350.692 201.408,350.617 201.120 C 350.542 200.833,350.480 201.068,350.480 201.643 M138.312 233.607 L 138.312 261.389 166.094 261.389 L 193.876 261.389 193.876 233.607 L 193.876 205.825 166.094 205.825 L 138.312 205.825 138.312 233.607 M205.825 233.607 L 205.825 261.389 233.607 261.389 L 261.389 261.389 261.389 233.607 L 261.389 205.825 233.607 205.825 L 205.825 205.825 205.825 233.607 M324.421 211.053 C 325.314 211.957,326.111 212.696,326.193 212.696 C 326.275 212.696,325.612 211.957,324.720 211.053 C 323.828 210.149,323.030 209.410,322.948 209.410 C 322.866 209.410,323.529 210.149,324.421 211.053 M346.065 210.978 L 344.884 212.248 346.154 211.067 C 347.335 209.969,347.561 209.709,347.335 209.709 C 347.286 209.709,346.715 210.280,346.065 210.978 M334.354 215.599 C 334.806 215.667,335.545 215.667,335.997 215.599 C 336.449 215.530,336.079 215.474,335.176 215.474 C 334.272 215.474,333.902 215.530,334.354 215.599 M289.171 241.158 C 289.171 241.203,290.213 242.245,291.486 243.473 L 293.801 245.706 291.568 243.391 C 289.494 241.240,289.171 240.939,289.171 241.158 M330.321 261.301 C 330.691 261.372,331.296 261.372,331.665 261.301 C 332.035 261.230,331.733 261.172,330.993 261.172 C 330.254 261.172,329.951 261.230,330.321 261.301 M64.600 273.562 L 126.064 273.638 126.064 301.269 L 126.064 328.899 102.240 328.977 L 78.417 329.055 102.390 329.128 L 126.363 329.201 126.363 301.270 L 126.363 273.338 64.750 273.412 L 3.137 273.486 64.600 273.562 M64.156 319.853 C 64.527 319.924,65.065 319.922,65.351 319.847 C 65.636 319.772,65.332 319.714,64.675 319.717 C 64.018 319.720,63.784 319.781,64.156 319.853 M57.879 321.306 C 56.721 321.934,56.852 322.151,58.028 321.553 C 59.154 320.980,59.354 320.832,58.974 320.848 C 58.824 320.855,58.331 321.061,57.879 321.306 M75.280 324.272 C 75.837 324.847,76.361 325.317,76.443 325.317 C 76.525 325.317,76.136 324.847,75.579 324.272 C 75.021 323.697,74.498 323.226,74.416 323.226 C 74.334 323.226,74.723 323.697,75.280 324.272 M188.928 324.795 L 188.051 325.765 189.022 324.888 C 189.556 324.406,189.993 323.969,189.993 323.917 C 189.993 323.686,189.746 323.890,188.928 324.795 M49.386 335.176 C 49.386 336.243,49.440 336.680,49.507 336.146 C 49.573 335.612,49.573 334.739,49.507 334.205 C 49.440 333.671,49.386 334.108,49.386 335.176 M102.240 341.075 L 126.064 341.154 126.064 368.784 L 126.064 396.414 64.600 396.490 L 3.137 396.566 64.750 396.640 L 126.363 396.714 126.363 368.783 L 126.363 340.851 102.390 340.924 L 78.417 340.997 102.240 341.075 M53.771 345.780 C 54.664 346.684,55.461 347.423,55.543 347.423 C 55.626 347.423,54.963 346.684,54.070 345.780 C 53.178 344.877,52.380 344.137,52.298 344.137 C 52.216 344.137,52.879 344.877,53.771 345.780 M188.499 345.426 C 188.499 345.477,188.936 345.914,189.470 346.397 L 190.441 347.274 189.563 346.303 C 188.745 345.398,188.499 345.195,188.499 345.426 M210.437 346.303 L 209.559 347.274 210.530 346.397 C 211.064 345.914,211.501 345.477,211.501 345.426 C 211.501 345.195,211.255 345.398,210.437 346.303 " stroke="none" fill="#042b5b" fill-rule="evenodd"></path><path id="path4" d="M198.739 0.220 C 199.525 0.282,200.735 0.281,201.428 0.218 C 202.121 0.156,201.479 0.105,200.000 0.106 C 198.521 0.107,197.954 0.158,198.739 0.220 M193.353 0.505 C 193.641 0.580,194.111 0.580,194.399 0.505 C 194.686 0.430,194.451 0.368,193.876 0.368 C 193.301 0.368,193.066 0.430,193.353 0.505 M205.302 0.505 C 205.590 0.580,206.060 0.580,206.348 0.505 C 206.636 0.430,206.400 0.368,205.825 0.368 C 205.250 0.368,205.015 0.430,205.302 0.505 M72.942 3.211 C 81.761 3.255,96.279 3.255,105.205 3.211 C 114.131 3.167,106.916 3.131,89.171 3.131 C 71.426 3.131,64.123 3.167,72.942 3.211 M126.208 35.101 C 126.208 52.845,126.244 60.061,126.288 51.135 C 126.332 42.209,126.332 27.690,126.288 18.872 C 126.244 10.053,126.208 17.356,126.208 35.101 M333.814 3.211 C 358.181 3.272,364.922 3.369,365.129 3.661 C 365.323 3.935,365.361 3.915,365.270 3.585 C 365.163 3.190,361.428 3.136,333.956 3.135 L 302.763 3.132 333.814 3.211 M244.954 18.895 C 247.862 21.877,248.245 22.242,248.245 22.026 C 248.245 21.982,246.800 20.537,245.034 18.815 L 241.822 15.683 244.954 18.895 M154.586 18.895 L 152.203 21.359 154.668 18.976 C 156.023 17.666,157.132 16.557,157.132 16.512 C 157.132 16.294,156.799 16.606,154.586 18.895 M19.716 19.866 C 18.991 20.605,18.464 21.210,18.546 21.210 C 18.628 21.210,19.289 20.605,20.015 19.866 C 20.741 19.126,21.267 18.521,21.185 18.521 C 21.103 18.521,20.442 19.126,19.716 19.866 M199.184 48.910 C 199.721 48.976,200.527 48.975,200.976 48.907 C 201.425 48.838,200.986 48.784,200.000 48.786 C 199.014 48.787,198.647 48.843,199.184 48.910 M188.936 53.547 L 187.453 55.116 189.022 53.633 C 190.479 52.256,190.727 51.979,190.504 51.979 C 190.457 51.979,189.751 52.685,188.936 53.547 M323.808 53.996 L 322.778 55.116 323.898 54.086 C 324.941 53.128,325.156 52.875,324.928 52.875 C 324.878 52.875,324.374 53.379,323.808 53.996 M3.361 55.713 C 3.365 56.370,3.426 56.604,3.497 56.233 C 3.569 55.861,3.566 55.323,3.491 55.038 C 3.417 54.752,3.358 55.056,3.361 55.713 M263.562 60.045 C 263.562 60.784,263.620 61.087,263.691 60.717 C 263.762 60.347,263.762 59.742,263.691 59.373 C 263.620 59.003,263.562 59.305,263.562 60.045 M136.038 64.078 C 136.039 66.214,136.087 67.048,136.144 65.932 C 136.202 64.816,136.201 63.069,136.143 62.049 C 136.085 61.029,136.038 61.942,136.038 64.078 M319.418 64.675 C 319.421 65.332,319.483 65.566,319.554 65.194 C 319.626 64.823,319.623 64.285,319.548 64.000 C 319.473 63.714,319.415 64.018,319.418 64.675 M263.566 67.961 C 263.568 68.783,263.626 69.083,263.695 68.629 C 263.763 68.175,263.761 67.503,263.690 67.136 C 263.620 66.768,263.563 67.140,263.566 67.961 M125.835 70.500 C 125.835 71.075,125.896 71.311,125.971 71.023 C 126.047 70.736,126.047 70.265,125.971 69.978 C 125.896 69.690,125.835 69.925,125.835 70.500 M210.444 74.757 L 208.962 76.326 210.530 74.843 C 211.988 73.466,212.236 73.189,212.013 73.189 C 211.965 73.189,211.260 73.895,210.444 74.757 M189.096 74.832 C 189.654 75.407,190.177 75.878,190.259 75.878 C 190.341 75.878,189.952 75.407,189.395 74.832 C 188.838 74.257,188.314 73.786,188.232 73.786 C 188.150 73.786,188.539 74.257,189.096 74.832 M345.631 75.429 C 344.905 76.169,344.379 76.774,344.461 76.774 C 344.543 76.774,345.204 76.169,345.930 75.429 C 346.655 74.690,347.182 74.085,347.100 74.085 C 347.018 74.085,346.357 74.690,345.631 75.429 M205.963 78.043 C 205.884 78.249,205.855 89.507,205.898 103.062 L 205.975 127.707 206.124 102.689 C 206.206 88.928,206.236 77.670,206.189 77.670 C 206.143 77.670,206.041 77.838,205.963 78.043 M340.998 102.539 L 341.001 126.214 369.007 126.216 L 397.013 126.218 369.083 126.140 L 341.154 126.061 341.075 102.463 L 340.995 78.865 340.998 102.539 M256.820 92.764 C 256.379 93.663,256.082 94.399,256.160 94.399 C 256.361 94.399,257.867 91.375,257.733 91.241 C 257.672 91.180,257.261 91.865,256.820 92.764 M110.068 106.124 L 108.887 107.394 110.157 106.213 C 111.338 105.115,111.564 104.854,111.338 104.854 C 111.289 104.854,110.718 105.426,110.068 106.124 M150.859 105.247 C 150.859 105.298,151.296 105.735,151.830 106.217 L 152.801 107.095 151.923 106.124 C 151.105 105.219,150.859 105.016,150.859 105.247 M244.952 109.261 L 242.420 111.875 245.034 109.342 C 246.471 107.949,247.647 106.773,247.647 106.728 C 247.647 106.511,247.305 106.833,244.952 109.261 M154.593 109.335 C 155.402 110.157,156.131 110.829,156.214 110.829 C 156.296 110.829,155.701 110.157,154.892 109.335 C 154.083 108.514,153.353 107.842,153.271 107.842 C 153.189 107.842,153.784 108.514,154.593 109.335 M106.185 110.007 L 105.004 111.277 106.273 110.096 C 107.454 108.998,107.680 108.738,107.454 108.738 C 107.405 108.738,106.834 109.309,106.185 110.007 M169.978 120.535 C 169.978 120.739,171.807 121.646,171.943 121.509 C 172.008 121.445,171.592 121.168,171.019 120.895 C 170.446 120.622,169.978 120.460,169.978 120.535 M19.021 126.288 C 27.758 126.332,42.142 126.332,50.985 126.288 C 59.829 126.244,52.681 126.208,35.101 126.208 C 17.521 126.208,10.285 126.244,19.021 126.288 M287.028 126.288 C 294.804 126.333,307.440 126.333,315.109 126.288 C 322.777 126.244,316.415 126.208,300.971 126.208 C 285.527 126.208,279.252 126.244,287.028 126.288 M62.518 136.142 C 63.304 136.204,64.514 136.203,65.207 136.141 C 65.900 136.078,65.258 136.027,63.779 136.028 C 62.300 136.029,61.733 136.081,62.518 136.142 M329.045 162.211 C 329.045 175.437,329.081 180.848,329.126 174.235 C 329.171 167.621,329.171 156.800,329.126 150.187 C 329.081 143.574,329.045 148.984,329.045 162.211 M355.265 138.536 C 362.946 138.581,375.515 138.581,383.196 138.536 C 390.878 138.492,384.593 138.455,369.231 138.455 C 353.869 138.455,347.584 138.492,355.265 138.536 M108.439 154.892 C 109.994 156.453,111.332 157.730,111.415 157.730 C 111.497 157.730,110.292 156.453,108.738 154.892 C 107.183 153.331,105.845 152.054,105.762 152.054 C 105.680 152.054,106.885 153.331,108.439 154.892 M15.665 157.804 L 14.787 158.775 15.758 157.898 C 16.292 157.415,16.729 156.978,16.729 156.927 C 16.729 156.696,16.482 156.899,15.665 157.804 M62.509 184.833 C 63.125 184.897,64.134 184.897,64.750 184.833 C 65.366 184.769,64.862 184.716,63.630 184.716 C 62.397 184.716,61.893 184.769,62.509 184.833 M74.073 189.171 C 74.805 189.951,75.444 190.590,75.492 190.590 C 75.716 190.590,75.479 190.322,74.160 189.084 L 72.741 187.752 74.073 189.171 M89.694 193.801 C 96.553 193.846,107.778 193.846,114.638 193.801 C 121.497 193.757,115.885 193.720,102.166 193.720 C 88.447 193.720,82.834 193.757,89.694 193.801 M0.075 194.922 C 0.079 195.579,0.140 195.812,0.211 195.441 C 0.283 195.069,0.280 194.532,0.205 194.246 C 0.130 193.960,0.072 194.264,0.075 194.922 M48.484 199.851 C 48.484 200.754,48.540 201.124,48.608 200.672 C 48.677 200.220,48.677 199.481,48.608 199.029 C 48.540 198.577,48.484 198.947,48.484 199.851 M319.717 200.299 C 319.720 200.956,319.781 201.190,319.853 200.818 C 319.924 200.446,319.922 199.909,319.847 199.623 C 319.772 199.337,319.714 199.642,319.717 200.299 M0.069 204.630 C 0.069 205.205,0.131 205.441,0.206 205.153 C 0.281 204.866,0.281 204.395,0.206 204.108 C 0.131 203.820,0.069 204.055,0.069 204.630 M77.567 206.049 C 77.441 206.252,95.300 206.250,118.297 206.044 C 123.144 206.001,115.994 205.934,102.407 205.895 C 88.821 205.857,77.643 205.926,77.567 206.049 M62.065 214.998 C 62.436 215.070,62.974 215.067,63.260 214.992 C 63.545 214.918,63.241 214.859,62.584 214.862 C 61.927 214.866,61.693 214.927,62.065 214.998 M64.455 214.998 C 64.826 215.070,65.364 215.067,65.649 214.992 C 65.935 214.918,65.631 214.859,64.974 214.862 C 64.317 214.866,64.083 214.927,64.455 214.998 M18.521 244.810 C 20.076 246.370,21.415 247.647,21.497 247.647 C 21.579 247.647,20.374 246.370,18.820 244.810 C 17.266 243.249,15.927 241.972,15.845 241.972 C 15.762 241.972,16.967 243.249,18.521 244.810 M108.579 245.034 L 106.796 246.901 108.663 245.118 C 109.690 244.137,110.530 243.297,110.530 243.251 C 110.530 243.030,110.235 243.299,108.579 245.034 M348.417 261.314 C 357.425 261.358,372.078 261.358,380.979 261.314 C 389.880 261.270,382.509 261.234,364.600 261.235 C 346.692 261.235,339.409 261.270,348.417 261.314 M58.779 263.393 C 59.150 263.464,59.688 263.462,59.974 263.387 C 60.259 263.312,59.955 263.253,59.298 263.257 C 58.641 263.260,58.407 263.321,58.779 263.393 M67.140 263.392 C 67.509 263.464,68.114 263.464,68.484 263.392 C 68.854 263.321,68.551 263.263,67.812 263.263 C 67.072 263.263,66.770 263.321,67.140 263.392 M194.402 271.458 C 194.774 271.530,195.312 271.527,195.597 271.452 C 195.883 271.378,195.579 271.319,194.922 271.323 C 194.264 271.326,194.031 271.387,194.402 271.458 M204.260 271.458 C 204.632 271.530,205.170 271.527,205.455 271.452 C 205.741 271.378,205.437 271.319,204.780 271.323 C 204.122 271.326,203.889 271.387,204.260 271.458 M289.395 273.562 C 298.308 273.606,312.894 273.606,321.807 273.562 C 330.721 273.518,323.428 273.482,305.601 273.482 C 287.774 273.482,280.482 273.518,289.395 273.562 M243.017 289.171 C 244.654 290.814,246.060 292.158,246.143 292.158 C 246.225 292.158,244.953 290.814,243.316 289.171 C 241.679 287.528,240.273 286.184,240.190 286.184 C 240.108 286.184,241.380 287.528,243.017 289.171 M156.236 289.320 C 155.510 290.060,154.984 290.665,155.066 290.665 C 155.148 290.665,155.809 290.060,156.535 289.320 C 157.260 288.581,157.787 287.976,157.705 287.976 C 157.623 287.976,156.962 288.581,156.236 289.320 M379.238 291.561 C 379.880 292.218,380.472 292.756,380.554 292.756 C 380.637 292.756,380.179 292.218,379.537 291.561 C 378.895 290.904,378.303 290.366,378.221 290.366 C 378.139 290.366,378.596 290.904,379.238 291.561 M381.180 293.745 C 381.180 293.797,381.617 294.234,382.151 294.716 L 383.122 295.594 382.244 294.623 C 381.426 293.718,381.180 293.515,381.180 293.745 M261.166 328.753 C 261.169 329.410,261.230 329.644,261.302 329.272 C 261.373 328.901,261.370 328.363,261.296 328.077 C 261.221 327.792,261.162 328.096,261.166 328.753 M397.013 364.152 L 397.013 396.414 335.101 396.490 L 273.189 396.566 335.250 396.640 L 397.311 396.714 397.311 364.302 C 397.311 346.475,397.244 331.889,397.162 331.889 C 397.080 331.889,397.013 346.407,397.013 364.152 M150.209 341.075 C 156.834 341.120,167.589 341.120,174.107 341.075 C 180.626 341.030,175.205 340.994,162.061 340.994 C 148.917 340.994,143.584 341.030,150.209 341.075 M169.007 396.639 C 185.971 396.682,213.730 396.682,230.695 396.639 C 247.659 396.597,233.779 396.562,199.851 396.562 C 165.922 396.562,152.043 396.597,169.007 396.639 " stroke="none" fill="#353d4e" fill-rule="evenodd"></path></g></svg>